<svg width="14" height="14" viewBox="0 0 14 14" fill="none" xmlns="http://www.w3.org/2000/svg">
<path d="M12.7143 0.333344H1.28272C0.758908 0.333344 0.333313 0.764891 0.333313 1.29465V12.7054C0.333313 13.2351 0.758908 13.6667 1.28272 13.6667H12.7143C13.2381 13.6667 13.6666 13.2351 13.6666 12.7054V1.29465C13.6666 0.764891 13.2381 0.333344 12.7143 0.333344ZM4.36307 11.7619H2.38688V5.39882H4.36605V11.7619H4.36307ZM3.37498 4.52977C2.74105 4.52977 2.22915 4.01489 2.22915 3.38394C2.22915 2.75299 2.74105 2.23811 3.37498 2.23811C4.00593 2.23811 4.52081 2.75299 4.52081 3.38394C4.52081 4.01787 4.00891 4.52977 3.37498 4.52977V4.52977ZM11.7708 11.7619H9.79462V8.66668C9.79462 7.92858 9.77974 6.97918 8.76784 6.97918C7.73808 6.97918 7.58034 7.78275 7.58034 8.61311V11.7619H5.60415V5.39882H7.49998V6.26787H7.52677C7.79165 5.76787 8.43748 5.24108 9.39879 5.24108C11.3988 5.24108 11.7708 6.55953 11.7708 8.27382V11.7619V11.7619Z" fill="white"/>
</svg>
